<svg width="16" height="20" viewBox="0 0 16 20" fill="none" xmlns="http://www.w3.org/2000/svg">
<g clip-path="url(#clip0_158_901)">
<path d="M16 12.8816C16 16.8129 12.4167 20.0004 8 20.0004C3.58333 20.0004 0 16.8129 0 12.8816C0 8.68476 5.26 2.35663 7.25 0.116006C7.29199 0.0614367 7.35164 0.0210298 7.42009 0.000794541C7.48854 -0.0194407 7.56213 -0.0184235 7.62991 0.00369489C7.69769 0.0258133 7.75605 0.0678514 7.79631 0.123558C7.83656 0.179264 7.85656 0.245664 7.85333 0.312881C7.68333 2.18788 7.8 6.20038 11.38 8.20038C11.4516 8.24588 11.5393 8.2635 11.6245 8.2495C11.7097 8.23551 11.7858 8.191 11.8367 8.12538C12.2854 7.50567 12.5447 6.78271 12.5867 6.03476C12.5906 5.96606 12.6185 5.90049 12.6662 5.84822C12.714 5.79595 12.7787 5.75989 12.8505 5.74565C12.9223 5.73141 12.9971 5.73977 13.0633 5.76944C13.1295 5.79911 13.1834 5.84843 13.2167 5.90976C14.74 8.25976 16 10.8254 16 12.8816Z" fill="#FF7F00"/>
<path d="M3 15.5497C3 18.0091 5.24 19.9997 8 19.9997C10.76 19.9997 13 18.0091 13 15.5497C13 13.0903 10.1033 9.45281 8.72 7.85906C8.67856 7.80302 8.61869 7.76122 8.54955 7.74005C8.4804 7.71888 8.40576 7.71949 8.33702 7.7418C8.26828 7.76411 8.20922 7.80688 8.16883 7.8636C8.12844 7.92032 8.10895 7.98787 8.11333 8.05594C8.16333 9.30594 7.93 11.4216 5.99667 12.5716C5.95911 12.5949 5.9169 12.6108 5.87259 12.6184C5.82828 12.626 5.78279 12.6251 5.73886 12.6158C5.69494 12.6064 5.65349 12.5888 5.61702 12.564C5.58054 12.5392 5.54981 12.5078 5.52667 12.4716C5.35864 12.2018 5.2456 11.9051 5.19333 11.5966C5.18573 11.5287 5.15461 11.465 5.10474 11.4152C5.05488 11.3654 4.989 11.3324 4.91718 11.321C4.84537 11.3097 4.77157 11.3207 4.70707 11.3524C4.64256 11.3841 4.59091 11.4347 4.56 11.4966C3.68333 12.8809 3 14.3528 3 15.5497Z" fill="#FFDA00"/>
<path d="M10.7493 17.5532C10.742 17.8836 10.6648 18.2095 10.5223 18.5118C10.3798 18.8142 10.1748 19.087 9.91905 19.3146C9.66334 19.5421 9.36203 19.7199 9.03257 19.8376C8.7031 19.9552 8.35202 20.0104 7.99965 20C7.64727 20.0104 7.29619 19.9552 6.96673 19.8376C6.63727 19.7199 6.33596 19.5421 6.08025 19.3146C5.82453 19.087 5.61948 18.8142 5.47697 18.5118C5.33446 18.2095 5.25732 17.8836 5.25 17.5532C5.25 16.3438 6.5165 14.625 7.33307 13.6438C7.37293 13.5901 7.42977 13.5494 7.49557 13.5276C7.56138 13.5058 7.63282 13.5039 7.69983 13.5222C7.76684 13.5405 7.82604 13.5781 7.86906 13.6296C7.91209 13.6811 7.93678 13.744 7.93966 13.8094C7.94093 14.19 8.03111 14.5658 8.20386 14.9102C8.3766 15.2547 8.6277 15.5594 8.93953 15.8032C8.98027 15.836 9.0289 15.8592 9.08125 15.8707C9.13361 15.8821 9.18814 15.8815 9.2402 15.8689C9.29226 15.8563 9.3403 15.8321 9.38022 15.7984C9.42014 15.7646 9.45076 15.7223 9.46946 15.675C9.48936 15.6162 9.52742 15.5642 9.57883 15.5256C9.63023 15.487 9.69268 15.4635 9.75829 15.4582C9.8239 15.4528 9.88973 15.4658 9.94747 15.4955C10.0052 15.5252 10.0523 15.5703 10.0827 15.625C10.462 16.2103 10.6903 16.8705 10.7493 17.5532Z" fill="white"/>
</g>
<defs>
<clipPath id="clip0_158_901">
<rect width="16" height="20" fill="white"/>
</clipPath>
</defs>
</svg>
