<svg width="25" height="32" viewBox="0 0 25 32" fill="none" xmlns="http://www.w3.org/2000/svg">
<g clip-path="url(#clip0_145_12665)">
<path d="M25 20.61C25 26.9 19.401 32 12.5 32C5.59896 32 0 26.9 0 20.61C0 13.895 8.21875 3.77 11.3281 0.185001C11.3937 0.0976899 11.4869 0.0330388 11.5939 0.00066244C11.7008 -0.031714 11.8158 -0.0300864 11.9217 0.00530299C12.0276 0.0406924 12.1188 0.107953 12.1817 0.197084C12.2446 0.286214 12.2759 0.392453 12.2708 0.500001C12.0052 3.5 12.1875 9.92 17.7812 13.12C17.8932 13.1928 18.0302 13.221 18.1633 13.1986C18.2965 13.1762 18.4153 13.105 18.4948 13C19.1959 12.0085 19.6011 10.8517 19.6667 9.655C19.6728 9.54509 19.7165 9.44018 19.791 9.35654C19.8655 9.27291 19.9667 9.21522 20.0789 9.19243C20.1911 9.16964 20.308 9.18302 20.4114 9.23049C20.5148 9.27797 20.5991 9.35688 20.651 9.455C23.0312 13.215 25 17.32 25 20.61Z" fill="#FF7F00"/>
<path d="M4.6875 24.88C4.6875 28.815 8.1875 32 12.5 32C16.8125 32 20.3125 28.815 20.3125 24.88C20.3125 20.945 15.7865 15.125 13.625 12.575C13.5602 12.4853 13.4667 12.4185 13.3587 12.3846C13.2506 12.3507 13.134 12.3517 13.0266 12.3874C12.9192 12.4231 12.8269 12.4915 12.7638 12.5823C12.7007 12.673 12.6702 12.7811 12.6771 12.89C12.7552 14.89 12.3906 18.275 9.36979 20.115C9.31111 20.1523 9.24516 20.1778 9.17593 20.19C9.10669 20.2021 9.03561 20.2007 8.96698 20.1857C8.89834 20.1708 8.83357 20.1426 8.77659 20.1029C8.7196 20.0633 8.67158 20.013 8.63542 19.955C8.37287 19.5234 8.19626 19.0486 8.11458 18.555C8.1027 18.4464 8.05408 18.3444 7.97616 18.2648C7.89824 18.1852 7.79531 18.1323 7.6831 18.1142C7.57089 18.096 7.45557 18.1136 7.35479 18.1644C7.254 18.2151 7.1733 18.2961 7.125 18.395C5.75521 20.61 4.6875 22.965 4.6875 24.88Z" fill="#FFDA00"/>
<path d="M16.7969 28.085C16.7854 28.6138 16.6649 29.1351 16.4422 29.6189C16.2195 30.1027 15.8991 30.5392 15.4995 30.9033C15.0998 31.2674 14.629 31.5518 14.1141 31.74C13.5993 31.9283 13.0507 32.0166 12.5 32C11.9493 32.0166 11.4007 31.9283 10.8859 31.74C10.371 31.5518 9.90016 31.2674 9.50055 30.9033C9.10094 30.5392 8.78052 30.1027 8.55782 29.6189C8.33512 29.1351 8.21456 28.6138 8.20312 28.085C8.20312 26.15 10.1823 23.4 11.4583 21.83C11.5206 21.7441 11.6095 21.6791 11.7123 21.6442C11.8151 21.6093 11.9268 21.6062 12.0315 21.6355C12.1362 21.6648 12.2287 21.7249 12.2959 21.8073C12.3632 21.8898 12.4018 21.9904 12.4062 22.095C12.4082 22.704 12.5492 23.3052 12.8191 23.8563C13.0891 24.4074 13.4815 24.8951 13.9687 25.285C14.0324 25.3376 14.1084 25.3747 14.1902 25.393C14.272 25.4113 14.3573 25.4104 14.4386 25.3902C14.52 25.3701 14.595 25.3314 14.6574 25.2774C14.7198 25.2233 14.7677 25.1556 14.7969 25.08C14.828 24.9858 14.8874 24.9026 14.9678 24.8408C15.0481 24.7791 15.1457 24.7416 15.2482 24.733C15.3508 24.7244 15.4536 24.7452 15.5439 24.7928C15.6341 24.8403 15.7076 24.9124 15.7552 25C16.348 25.9364 16.7047 26.9928 16.7969 28.085Z" fill="white"/>
</g>
<defs>
<clipPath id="clip0_145_12665">
<rect width="25" height="32" fill="white"/>
</clipPath>
</defs>
</svg>
