<svg width="21" height="27" viewBox="0 0 21 27" fill="none" xmlns="http://www.w3.org/2000/svg">
<g clip-path="url(#clip0_145_14554)">
<path d="M21 17.3901C21 22.6973 16.2969 27.0004 10.5 27.0004C4.70312 27.0004 0 22.6973 0 17.3901C0 11.7243 6.90375 3.18135 9.51562 0.156511C9.57073 0.0828419 9.64903 0.0282926 9.73887 0.000974974C9.82871 -0.0263426 9.92529 -0.0249694 10.0143 0.00489044C10.1032 0.0347503 10.1798 0.0915018 10.2327 0.166705C10.2855 0.241909 10.3117 0.331548 10.3075 0.422292C10.0844 2.95354 10.2375 8.37042 14.9362 11.0704C15.0302 11.1318 15.1453 11.1556 15.2572 11.1367C15.369 11.1178 15.4689 11.0577 15.5356 10.9692C16.1245 10.1326 16.465 9.15657 16.52 8.14682C16.5251 8.05408 16.5618 7.96557 16.6244 7.895C16.6871 7.82443 16.7721 7.77576 16.8663 7.75653C16.9605 7.7373 17.0587 7.74859 17.1456 7.78864C17.2325 7.8287 17.3032 7.89529 17.3469 7.97807C19.3463 11.1506 21 14.6142 21 17.3901Z" fill="#FF7F00"/>
<path d="M3.9375 20.9926C3.9375 24.3127 6.8775 27.0001 10.5 27.0001C14.1225 27.0001 17.0625 24.3127 17.0625 20.9926C17.0625 17.6724 13.2606 12.7618 11.445 10.6102C11.3906 10.5346 11.312 10.4781 11.2213 10.4496C11.1305 10.421 11.0326 10.4218 10.9423 10.4519C10.8521 10.482 10.7746 10.5398 10.7216 10.6163C10.6686 10.6929 10.643 10.7841 10.6488 10.876C10.7144 12.5635 10.4081 15.4196 7.87063 16.9721C7.82133 17.0036 7.76593 17.0251 7.70778 17.0353C7.64962 17.0456 7.58991 17.0444 7.53226 17.0318C7.47461 17.0191 7.4202 16.9954 7.37233 16.9619C7.32446 16.9285 7.28413 16.886 7.25375 16.8371C7.03321 16.4729 6.88486 16.0724 6.81625 15.6558C6.80627 15.5642 6.76543 15.4782 6.69998 15.411C6.63452 15.3438 6.54806 15.2992 6.4538 15.2839C6.35954 15.2686 6.26268 15.2835 6.17802 15.3262C6.09336 15.369 6.02557 15.4374 5.985 15.5208C4.83438 17.3898 3.9375 19.3768 3.9375 20.9926Z" fill="#FFDA00"/>
<path d="M14.1094 23.6969C14.0998 24.143 13.9985 24.5829 13.8114 24.9911C13.6244 25.3992 13.3552 25.7676 13.0195 26.0748C12.6839 26.382 12.2884 26.622 11.8559 26.7808C11.4234 26.9396 10.9626 27.0142 10.5 27.0001C10.0374 27.0142 9.5766 26.9396 9.14412 26.7808C8.71165 26.622 8.31613 26.382 7.98046 26.0748C7.64479 25.7676 7.37564 25.3992 7.18857 24.9911C7.0015 24.5829 6.90023 24.143 6.89062 23.6969C6.89062 22.0642 8.55313 19.7439 9.625 18.4192C9.67733 18.3467 9.75194 18.2918 9.83832 18.2624C9.9247 18.233 10.0185 18.2304 10.1064 18.2551C10.1944 18.2798 10.2721 18.3305 10.3286 18.4001C10.3851 18.4696 10.4175 18.5545 10.4212 18.6428C10.4229 19.1566 10.5413 19.6639 10.7681 20.1289C10.9948 20.5939 11.3244 21.0054 11.7337 21.3344C11.7872 21.3788 11.8511 21.41 11.9198 21.4255C11.9885 21.4409 12.0601 21.4402 12.1284 21.4232C12.1968 21.4062 12.2598 21.3735 12.3122 21.3279C12.3646 21.2823 12.4048 21.2252 12.4294 21.1614C12.4555 21.0819 12.5055 21.0117 12.5729 20.9596C12.6404 20.9075 12.7224 20.8758 12.8085 20.8686C12.8946 20.8614 12.9811 20.8789 13.0568 20.919C13.1326 20.9591 13.1944 21.02 13.2344 21.0939C13.7323 21.884 14.0319 22.7753 14.1094 23.6969Z" fill="white"/>
</g>
<defs>
<clipPath id="clip0_145_14554">
<rect width="21" height="27" fill="white"/>
</clipPath>
</defs>
</svg>
