<svg width="25" height="32" viewBox="0 0 25 32" fill="none" xmlns="http://www.w3.org/2000/svg">
<g clip-path="url(#clip0_158_892)">
<path d="M25 20.61C25 26.9 19.401 32 12.5 32C5.59896 32 0 26.9 0 20.61C0 13.895 8.21875 3.77002 11.3281 0.185024C11.3937 0.0977127 11.4869 0.0330617 11.5939 0.000685329C11.7008 -0.0316911 11.8158 -0.0300636 11.9217 0.00532588C12.0276 0.0407153 12.1188 0.107976 12.1817 0.197107C12.2446 0.286237 12.2759 0.392476 12.2708 0.500024C12.0052 3.50002 12.1875 9.92002 17.7812 13.12C17.8932 13.1928 18.0302 13.221 18.1633 13.1986C18.2965 13.1762 18.4153 13.105 18.4948 13C19.1959 12.0085 19.6011 10.8518 19.6667 9.65502C19.6728 9.54511 19.7165 9.4402 19.791 9.35656C19.8655 9.27293 19.9667 9.21524 20.0789 9.19245C20.1911 9.16966 20.308 9.18304 20.4114 9.23052C20.5148 9.27799 20.5991 9.35691 20.651 9.45502C23.0312 13.215 25 17.32 25 20.61Z" fill="#FF7F00"/>
<path d="M4.6875 24.8805C4.6875 28.8155 8.1875 32.0005 12.5 32.0005C16.8125 32.0005 20.3125 28.8155 20.3125 24.8805C20.3125 20.9455 15.7865 15.1255 13.625 12.5755C13.5602 12.4858 13.4667 12.4189 13.3587 12.3851C13.2506 12.3512 13.134 12.3522 13.0266 12.3879C12.9192 12.4236 12.8269 12.492 12.7638 12.5827C12.7007 12.6735 12.6702 12.7816 12.6771 12.8905C12.7552 14.8905 12.3906 18.2755 9.36979 20.1155C9.31111 20.1528 9.24516 20.1783 9.17593 20.1904C9.10669 20.2026 9.03561 20.2011 8.96698 20.1862C8.89834 20.1712 8.83357 20.1431 8.77659 20.1034C8.7196 20.0638 8.67158 20.0134 8.63542 19.9555C8.37287 19.5239 8.19626 19.0491 8.11458 18.5555C8.1027 18.4468 8.05408 18.3449 7.97616 18.2653C7.89824 18.1857 7.79531 18.1328 7.6831 18.1146C7.57089 18.0965 7.45557 18.1141 7.35479 18.1648C7.254 18.2156 7.1733 18.2966 7.125 18.3955C5.75521 20.6105 4.6875 22.9655 4.6875 24.8805Z" fill="#FFDA00"/>
<path d="M16.7969 28.0847C16.7854 28.6134 16.6649 29.1348 16.4422 29.6186C16.2195 30.1023 15.8991 30.5389 15.4995 30.903C15.0998 31.267 14.629 31.5514 14.1141 31.7397C13.5993 31.9279 13.0507 32.0163 12.5 31.9997C11.9493 32.0163 11.4007 31.9279 10.8859 31.7397C10.371 31.5514 9.90016 31.267 9.50055 30.903C9.10094 30.5389 8.78052 30.1023 8.55782 29.6186C8.33512 29.1348 8.21456 28.6134 8.20312 28.0847C8.20312 26.1497 10.1823 23.3997 11.4583 21.8297C11.5206 21.7437 11.6095 21.6787 11.7123 21.6438C11.8151 21.6089 11.9268 21.6059 12.0315 21.6352C12.1362 21.6644 12.2287 21.7245 12.2959 21.807C12.3632 21.8894 12.4018 21.99 12.4062 22.0947C12.4082 22.7037 12.5492 23.3048 12.8191 23.856C13.0891 24.4071 13.4815 24.8947 13.9687 25.2847C14.0324 25.3373 14.1084 25.3743 14.1902 25.3927C14.272 25.411 14.3573 25.41 14.4386 25.3899C14.52 25.3698 14.595 25.331 14.6574 25.277C14.7198 25.223 14.7677 25.1553 14.7969 25.0797C14.828 24.9855 14.8874 24.9023 14.9678 24.8405C15.0481 24.7787 15.1457 24.7412 15.2482 24.7327C15.3508 24.7241 15.4536 24.7449 15.5439 24.7924C15.6341 24.8399 15.7076 24.912 15.7552 24.9997C16.348 25.9361 16.7047 26.9925 16.7969 28.0847Z" fill="white"/>
</g>
<defs>
<clipPath id="clip0_158_892">
<rect width="25" height="32" fill="white"/>
</clipPath>
</defs>
</svg>
