<svg width="34" height="34" viewBox="0 0 34 34" fill="none" xmlns="http://www.w3.org/2000/svg">
<g clip-path="url(#clip0_145_12626)">
<path d="M20.0938 4.625H10.8125V15.9688H7.71875V18.0312H10.8125V21.125H7.71875V23.1875H10.8125V29.375H12.875V23.1875H22.1562V21.125H12.875V18.0312H20.0938C21.7342 18.0294 23.307 17.3769 24.467 16.217C25.6269 15.057 26.2794 13.4842 26.2812 11.8438V10.8125C26.2794 9.17203 25.6269 7.59928 24.467 6.4393C23.307 5.27931 21.7342 4.62683 20.0938 4.625ZM24.2188 11.8438C24.2175 12.9374 23.7825 13.9859 23.0092 14.7592C22.2359 15.5325 21.1874 15.9675 20.0938 15.9688H12.875V6.6875H20.0938C21.1874 6.68873 22.2359 7.12372 23.0092 7.89704C23.7825 8.67036 24.2175 9.71886 24.2188 10.8125V11.8438Z" fill="#313131"/>
</g>
<defs>
<clipPath id="clip0_145_12626">
<rect width="33" height="33" fill="white" transform="translate(0.5 0.5)"/>
</clipPath>
</defs>
</svg>
